<svg width="197" height="31" viewBox="0 0 197 31" fill="none" xmlns="http://www.w3.org/2000/svg">
<path 
d="M0.420455 5.98011V0.90909H24.3125V5.98011H15.4062V30H9.3267V5.98011H0.420455ZM46.2159 0.90909H52.3665V19.8011C52.3665 21.9223 51.8598 23.7784 50.8466 25.3693C49.8428 26.9602 48.4366 28.2008 46.6278 29.0909C44.8191 29.9716 42.7121 30.4119 40.3068 30.4119C37.892 30.4119 35.7803 29.9716 33.9716 29.0909C32.1629 28.2008 30.7566 26.9602 29.7528 25.3693C28.7491 23.7784 28.2472 21.9223 28.2472 19.8011V0.90909H34.3977V19.2756C34.3977 20.3835 34.6392 21.3684 35.1222 22.2301C35.6146 23.0919 36.3059 23.7689 37.196 24.2614C38.0862 24.7538 39.1231 25 40.3068 25C41.5 25 42.5369 24.7538 43.4176 24.2614C44.3078 23.7689 44.9943 23.0919 45.4773 22.2301C45.9697 21.3684 46.2159 20.3835 46.2159 19.2756V0.90909ZM62.6825 0.90909L69.7138 23.0114H69.9837L77.0291 0.90909H83.8473L73.8189 30H65.8928L55.8501 0.90909H62.6825ZM111.34 0.90909V30H108.755L91.5675 5.6392H91.3402V30H88.6839V0.90909H91.255L108.499 25.2983H108.727V0.90909H111.34ZM142.924 15.4545C142.924 18.4848 142.384 21.1222 141.305 23.3665C140.225 25.6013 138.738 27.3343 136.844 28.5653C134.96 29.7869 132.791 30.3977 130.339 30.3977C127.886 30.3977 125.713 29.7869 123.819 28.5653C121.934 27.3343 120.452 25.6013 119.373 23.3665C118.303 21.1222 117.768 18.4848 117.768 15.4545C117.768 12.4242 118.303 9.79167 119.373 7.55682C120.452 5.3125 121.939 3.57954 123.833 2.35795C125.727 1.12689 127.896 0.511363 130.339 0.511363C132.791 0.511363 134.96 1.12689 136.844 2.35795C138.738 3.57954 140.225 5.3125 141.305 7.55682C142.384 9.79167 142.924 12.4242 142.924 15.4545ZM140.339 15.4545C140.339 12.8504 139.903 10.6203 139.032 8.7642C138.161 6.89867 136.972 5.47348 135.467 4.48864C133.961 3.50379 132.252 3.01136 130.339 3.01136C128.435 3.01136 126.731 3.50379 125.225 4.48864C123.719 5.47348 122.526 6.89394 121.646 8.75C120.774 10.6061 120.339 12.8409 120.339 15.4545C120.339 18.0587 120.774 20.2888 121.646 22.1449C122.517 24.0009 123.705 25.4261 125.211 26.4205C126.717 27.4053 128.426 27.8977 130.339 27.8977C132.252 27.8977 133.961 27.4053 135.467 26.4205C136.982 25.4356 138.175 24.0152 139.046 22.1591C139.917 20.2936 140.348 18.0587 140.339 15.4545ZM149.348 30V0.90909H158.737C160.802 0.90909 162.525 1.28314 163.908 2.03125C165.3 2.76989 166.346 3.79735 167.047 5.11364C167.757 6.42045 168.112 7.9214 168.112 9.61648C168.112 11.3116 167.757 12.8078 167.047 14.1051C166.346 15.4025 165.304 16.4157 163.922 17.1449C162.539 17.8741 160.825 18.2386 158.78 18.2386H150.783V15.8097H158.709C160.224 15.8097 161.483 15.5587 162.487 15.0568C163.5 14.5549 164.253 13.84 164.746 12.9119C165.248 11.9839 165.499 10.8854 165.499 9.61648C165.499 8.34754 165.248 7.23958 164.746 6.29261C164.244 5.33617 163.486 4.59754 162.473 4.0767C161.469 3.55587 160.2 3.29545 158.666 3.29545H152.004V30H149.348ZM162.175 16.875L169.334 30H166.266L159.178 16.875H162.175ZM183.105 30H174.582V0.90909H183.616C186.391 0.90909 188.763 1.48674 190.733 2.64205C192.712 3.79735 194.227 5.45455 195.278 7.61364C196.33 9.77273 196.855 12.3627 196.855 15.3835C196.855 18.4328 196.315 21.0511 195.236 23.2386C194.166 25.4167 192.603 27.0881 190.548 28.2528C188.503 29.4176 186.022 30 183.105 30ZM177.239 27.6136H182.949C185.449 27.6136 187.542 27.1212 189.227 26.1364C190.913 25.1515 192.177 23.7453 193.02 21.9176C193.863 20.09 194.284 17.9119 194.284 15.3835C194.275 12.8741 193.858 10.715 193.034 8.90625C192.22 7.09754 191.008 5.71023 189.398 4.74432C187.797 3.77841 185.818 3.29545 183.46 3.29545H177.239V27.6136Z" fill="white"/>
</svg>
